# WaveFront *.obj file (generated by Autodesk ATF)

mtllib P7.mtl

g Cuerpo1

v -18.458546 -0.695992 43.459900
v -18.193971 -0.695992 43.459900
v -18.193971 -0.695992 44.959900
v -18.458546 -0.695992 44.959900
v -18.233579 -0.723222 44.959900
v -18.278541 -0.740216 44.959900
v -18.326258 -0.745992 44.959900
v -18.373976 -0.740216 44.959900
v -18.418937 -0.723222 44.959900
v -18.492062 -0.657836 43.459900
v -18.514887 -0.612468 43.459900
v -18.525550 -0.562814 43.459900
v -18.523362 -0.512075 43.459900
v -18.508464 -0.463524 43.459900
v -18.481818 -0.420289 43.459900
v -18.445142 -0.385160 43.459900
v -18.400800 -0.360402 43.459900
v -18.351651 -0.347610 43.459900
v -18.300865 -0.347610 43.459900
v -18.251717 -0.360402 43.459900
v -18.207375 -0.385160 43.459900
v -18.170698 -0.420289 43.459900
v -18.144052 -0.463524 43.459900
v -18.129155 -0.512075 43.459900
v -18.126967 -0.562814 43.459900
v -18.137629 -0.612468 43.459900
v -18.160455 -0.657836 43.459900
v -19.076258 -0.545992 45.359900
v -19.064864 -0.676228 45.359900
v -19.031028 -0.802507 45.359900
v -18.975777 -0.920992 45.359900
v -18.900792 -1.028082 45.359900
v -18.808349 -1.120525 45.359900
v -18.701258 -1.195511 45.359900
v -18.582773 -1.250761 45.359900
v -18.456494 -1.284598 45.359900
v -18.326258 -1.295992 45.359900
v -18.196022 -1.284598 45.359900
v -18.069743 -1.250761 45.359900
v -17.951258 -1.195511 45.359900
v -17.844168 -1.120525 45.359900
v -17.751725 -1.028082 45.359900
v -17.676739 -0.920992 45.359900
v -17.621489 -0.802507 45.359900
v -17.587653 -0.676228 45.359900
v -17.576258 -0.545992 45.359900
v -17.587653 -0.415756 45.359900
v -17.621489 -0.289477 45.359900
v -17.676739 -0.170992 45.359900
v -17.751725 -0.063901 45.359900
v -17.844168 0.028542 45.359900
v -17.951258 0.103527 45.359900
v -18.069743 0.158778 45.359900
v -18.196022 0.192614 45.359900
v -18.326258 0.204008 45.359900
v -18.456494 0.192614 45.359900
v -18.582773 0.158778 45.359900
v -18.701258 0.103527 45.359900
v -18.808349 0.028542 45.359900
v -18.900792 -0.063901 45.359900
v -18.975777 -0.170992 45.359900
v -19.031028 -0.289477 45.359900
v -19.064864 -0.415756 45.359900
v -19.076258 -0.545992 45.509900
v -19.064864 -0.415756 45.509900
v -19.031028 -0.289477 45.509900
v -18.975777 -0.170992 45.509900
v -18.900792 -0.063901 45.509900
v -18.808349 0.028542 45.509900
v -18.701258 0.103527 45.509900
v -18.582773 0.158778 45.509900
v -18.456494 0.192614 45.509900
v -18.326258 0.204008 45.509900
v -18.196022 0.192614 45.509900
v -18.069743 0.158778 45.509900
v -17.951258 0.103527 45.509900
v -17.844168 0.028542 45.509900
v -17.751725 -0.063901 45.509900
v -17.676739 -0.170992 45.509900
v -17.621489 -0.289477 45.509900
v -17.587653 -0.415756 45.509900
v -17.576258 -0.545992 45.509900
v -17.587653 -0.676228 45.509900
v -17.621489 -0.802507 45.509900
v -17.676739 -0.920992 45.509900
v -17.751725 -1.028082 45.509900
v -17.844168 -1.120525 45.509900
v -17.951258 -1.195511 45.509900
v -18.069743 -1.250761 45.509900
v -18.196022 -1.284598 45.509900
v -18.326258 -1.295992 45.509900
v -18.456494 -1.284598 45.509900
v -18.582773 -1.250761 45.509900
v -18.701258 -1.195511 45.509900
v -18.808349 -1.120525 45.509900
v -18.900792 -1.028082 45.509900
v -18.975777 -0.920992 45.509900
v -19.031028 -0.802507 45.509900
v -19.064864 -0.676228 45.509900
v -18.526258 -0.545992 45.359900
v -18.519443 -0.597756 45.359900
v -18.499463 -0.645992 45.359900
v -18.467680 -0.687413 45.359900
v -18.426258 -0.719197 45.359900
v -18.378022 -0.739177 45.359900
v -18.326258 -0.745992 45.359900
v -18.274495 -0.739177 45.359900
v -18.226258 -0.719197 45.359900
v -18.184837 -0.687413 45.359900
v -18.153053 -0.645992 45.359900
v -18.133073 -0.597756 45.359900
v -18.126258 -0.545992 45.359900
v -18.133073 -0.494228 45.359900
v -18.153053 -0.445992 45.359900
v -18.184837 -0.404570 45.359900
v -18.226258 -0.372787 45.359900
v -18.274495 -0.352807 45.359900
v -18.326258 -0.345992 45.359900
v -18.378022 -0.352807 45.359900
v -18.426258 -0.372787 45.359900
v -18.467680 -0.404570 45.359900
v -18.499463 -0.445992 45.359900
v -18.519443 -0.494228 45.359900
v -18.526258 -0.545992 44.409900
v -18.184837 -0.687413 44.409900
v -18.153053 -0.645992 44.409900
v -18.133073 -0.597756 44.409900
v -18.126258 -0.545992 44.409900
v -18.133073 -0.494228 44.409900
v -18.153053 -0.445992 44.409900
v -18.184837 -0.404570 44.409900
v -18.226258 -0.372787 44.409900
v -18.274495 -0.352807 44.409900
v -18.326258 -0.345992 44.409900
v -18.378022 -0.352807 44.409900
v -18.426258 -0.372787 44.409900
v -18.467680 -0.404570 44.409900
v -18.499463 -0.445992 44.409900
v -18.519443 -0.494228 44.409900
v -18.519443 -0.597756 44.409900
v -18.499463 -0.645992 44.409900
v -18.467680 -0.687413 44.409900
vt -0.264575 0.000000 0.000000
vt 0.000000 0.000000 0.000000
vt -0.264575 1.500000 0.000000
vt -0.000000 1.500000 0.000000
vt 0.132288 0.025000 0.000000
vt -0.132288 0.025000 0.000000
vt 0.092679 -0.002230 0.000000
vt -0.092679 -0.002230 0.000000
vt 0.047718 -0.019224 0.000000
vt -0.047718 -0.019224 0.000000
vt -0.000000 -0.025000 0.000000
vt 0.132288 0.150000 0.000000
vt -0.132288 0.150000 0.000000
vt 0.165804 0.111844 0.000000
vt -0.165804 0.111844 0.000000
vt 0.188629 0.066477 0.000000
vt -0.188629 0.066477 0.000000
vt 0.199291 0.016823 0.000000
vt -0.199291 0.016823 0.000000
vt 0.197103 -0.033916 0.000000
vt -0.197103 -0.033916 0.000000
vt 0.182206 -0.082468 0.000000
vt -0.182206 -0.082468 0.000000
vt 0.155560 -0.125702 0.000000
vt -0.155560 -0.125702 0.000000
vt 0.118884 -0.160831 0.000000
vt -0.118884 -0.160831 0.000000
vt 0.074541 -0.185590 0.000000
vt -0.074541 -0.185590 0.000000
vt 0.025393 -0.198381 0.000000
vt -0.025393 -0.198381 0.000000
vt -0.150000 2.225295 0.000000
vt -0.000000 2.225295 0.000000
vt -0.150000 2.356194 0.000000
vt -0.000000 2.356194 0.000000
vt -0.150000 -2.356194 0.000000
vt -0.000000 -2.356194 0.000000
vt -0.150000 -2.225295 0.000000
vt -0.000000 -2.225295 0.000000
vt -0.150000 -2.094395 0.000000
vt -0.000000 -2.094395 0.000000
vt -0.150000 -1.963495 0.000000
vt -0.000000 -1.963495 0.000000
vt -0.150000 -1.832596 0.000000
vt -0.000000 -1.832596 0.000000
vt -0.150000 -1.701696 0.000000
vt -0.000000 -1.701696 0.000000
vt -0.150000 -1.570796 0.000000
vt -0.000000 -1.570796 0.000000
vt -0.150000 -1.439897 0.000000
vt -0.000000 -1.439897 0.000000
vt -0.150000 -1.308997 0.000000
vt -0.000000 -1.308997 0.000000
vt -0.150000 -1.178097 0.000000
vt -0.000000 -1.178097 0.000000
vt -0.150000 -1.047198 0.000000
vt -0.000000 -1.047198 0.000000
vt -0.150000 -0.916298 0.000000
vt -0.000000 -0.916298 0.000000
vt -0.150000 -0.785398 0.000000
vt -0.000000 -0.785398 0.000000
vt -0.150000 -0.654498 0.000000
vt -0.000000 -0.654498 0.000000
vt -0.150000 -0.523599 0.000000
vt -0.000000 -0.523599 0.000000
vt -0.150000 -0.392699 0.000000
vt -0.000000 -0.392699 0.000000
vt -0.150000 -0.261799 0.000000
vt -0.000000 -0.261799 0.000000
vt -0.150000 -0.130900 0.000000
vt -0.000000 -0.130900 0.000000
vt -0.150000 0.000000 0.000000
vt -0.000000 0.000000 0.000000
vt -0.150000 0.130900 0.000000
vt -0.000000 0.130900 0.000000
vt -0.150000 0.261799 0.000000
vt -0.000000 0.261799 0.000000
vt -0.150000 0.392699 0.000000
vt -0.000000 0.392699 0.000000
vt -0.150000 0.523599 0.000000
vt -0.000000 0.523599 0.000000
vt -0.150000 0.654498 0.000000
vt -0.000000 0.654498 0.000000
vt -0.150000 0.785398 0.000000
vt -0.000000 0.785398 0.000000
vt -0.150000 0.916298 0.000000
vt -0.000000 0.916298 0.000000
vt -0.150000 1.047198 0.000000
vt -0.000000 1.047198 0.000000
vt -0.150000 1.178097 0.000000
vt -0.000000 1.178097 0.000000
vt -0.150000 1.308997 0.000000
vt -0.000000 1.308997 0.000000
vt -0.150000 1.439897 0.000000
vt -0.000000 1.439897 0.000000
vt -0.150000 1.570796 0.000000
vt -0.000000 1.570796 0.000000
vt -0.150000 1.701696 0.000000
vt -0.000000 1.701696 0.000000
vt -0.150000 1.832596 0.000000
vt -0.000000 1.832596 0.000000
vt -0.150000 1.963495 0.000000
vt -0.000000 1.963495 0.000000
vt -0.150000 2.094395 0.000000
vt -0.000000 2.094395 0.000000
vt -0.193185 0.051764 0.000000
vt -0.738606 0.130236 0.000000
vt -0.200000 -0.000000 0.000000
vt -0.750000 -0.000000 0.000000
vt -0.738606 -0.130236 0.000000
vt -0.704769 0.256515 0.000000
vt -0.173205 0.100000 0.000000
vt -0.649519 0.375000 0.000000
vt -0.574533 0.482091 0.000000
vt -0.141421 0.141421 0.000000
vt -0.482091 0.574533 0.000000
vt -0.100000 0.173205 0.000000
vt -0.375000 0.649519 0.000000
vt -0.256515 0.704769 0.000000
vt -0.051764 0.193185 0.000000
vt -0.130236 0.738606 0.000000
vt 0.000000 0.200000 0.000000
vt 0.000000 0.750000 0.000000
vt 0.130236 0.738606 0.000000
vt 0.051764 0.193185 0.000000
vt 0.256515 0.704769 0.000000
vt 0.100000 0.173205 0.000000
vt 0.375000 0.649519 0.000000
vt 0.482091 0.574533 0.000000
vt 0.141421 0.141421 0.000000
vt 0.574533 0.482091 0.000000
vt 0.173205 0.100000 0.000000
vt 0.649519 0.375000 0.000000
vt 0.704769 0.256515 0.000000
vt 0.193185 0.051764 0.000000
vt 0.738606 0.130236 0.000000
vt 0.200000 0.000000 0.000000
vt 0.750000 0.000000 0.000000
vt 0.738606 -0.130236 0.000000
vt 0.193185 -0.051764 0.000000
vt 0.704769 -0.256515 0.000000
vt 0.173205 -0.100000 0.000000
vt 0.649519 -0.375000 0.000000
vt 0.574533 -0.482091 0.000000
vt 0.141421 -0.141421 0.000000
vt 0.482091 -0.574533 0.000000
vt 0.100000 -0.173205 0.000000
vt 0.375000 -0.649519 0.000000
vt 0.256515 -0.704769 0.000000
vt 0.051764 -0.193185 0.000000
vt 0.130236 -0.738606 0.000000
vt 0.000000 -0.200000 0.000000
vt 0.000000 -0.750000 0.000000
vt -0.130236 -0.738606 0.000000
vt -0.051764 -0.193185 0.000000
vt -0.256515 -0.704769 0.000000
vt -0.100000 -0.173205 0.000000
vt -0.375000 -0.649519 0.000000
vt -0.482091 -0.574533 0.000000
vt -0.141421 -0.141421 0.000000
vt -0.574533 -0.482091 0.000000
vt -0.173205 -0.100000 0.000000
vt -0.649519 -0.375000 0.000000
vt -0.704769 -0.256515 0.000000
vt -0.193185 -0.051764 0.000000
vt -2.050000 0.169612 0.000000
vt -1.100000 0.157080 0.000000
vt -0.550000 0.169612 0.000000
vt -0.150000 0.157080 0.000000
vt -0.150000 0.209440 0.000000
vt -2.050000 0.118689 0.000000
vt -1.100000 0.104720 0.000000
vt -0.150000 0.104720 0.000000
vt -0.150000 0.052360 0.000000
vt -1.100000 0.052360 0.000000
vt -0.150000 0.000000 0.000000
vt -1.100000 0.000000 0.000000
vt -0.150000 -0.052360 0.000000
vt -1.100000 -0.052360 0.000000
vt -0.150000 -0.104720 0.000000
vt -1.100000 -0.104720 0.000000
vt -0.150000 -0.157080 0.000000
vt -1.100000 -0.157080 0.000000
vt -0.150000 -0.209440 0.000000
vt -1.100000 -0.209440 0.000000
vt -0.150000 -0.261799 0.000000
vt -1.100000 -0.261799 0.000000
vt -0.150000 -0.314159 0.000000
vt -1.100000 -0.314159 0.000000
vt -0.150000 -0.366519 0.000000
vt -1.100000 -0.366519 0.000000
vt -0.150000 -0.418879 0.000000
vt -1.100000 -0.418879 0.000000
vt -0.150000 -0.471239 0.000000
vt -1.100000 -0.471239 0.000000
vt -0.150000 -0.523599 0.000000
vt -1.100000 -0.523599 0.000000
vt -0.150000 -0.575959 0.000000
vt -1.100000 -0.575959 0.000000
vt -0.150000 -0.628319 0.000000
vt -1.100000 -0.628319 0.000000
vt -0.150000 0.628319 0.000000
vt -1.100000 0.628319 0.000000
vt -0.150000 0.575959 0.000000
vt -1.100000 0.575959 0.000000
vt -0.150000 0.523599 0.000000
vt -1.100000 0.523599 0.000000
vt -0.150000 0.471239 0.000000
vt -1.100000 0.471239 0.000000
vt -0.550000 0.458706 0.000000
vt -2.050000 0.458706 0.000000
vt -2.050000 0.509629 0.000000
vt -2.050000 0.560553 0.000000
vt -2.050000 0.611476 0.000000
vt -2.050000 0.662399 0.000000
vt -2.050000 -0.594238 0.000000
vt -2.050000 -0.543314 0.000000
vt -2.050000 -0.492391 0.000000
vt -2.050000 -0.441468 0.000000
vt -2.050000 -0.390544 0.000000
vt -2.050000 -0.339621 0.000000
vt -2.050000 -0.288698 0.000000
vt -2.050000 -0.237774 0.000000
vt -2.050000 -0.186851 0.000000
vt -2.050000 -0.135928 0.000000
vt -2.050000 -0.085004 0.000000
vt -2.050000 -0.034081 0.000000
vt -2.050000 0.016842 0.000000
vt -2.050000 0.067766 0.000000
vt -0.150000 0.418879 0.000000
vt -0.550000 0.410524 0.000000
vt -0.150000 0.366519 0.000000
vt -0.550000 0.362342 0.000000
vt -0.150000 0.314159 0.000000
vt -0.550000 0.314159 0.000000
vt -0.550000 0.265977 0.000000
vt -0.150000 0.261799 0.000000
vt -0.550000 0.217795 0.000000
vt 0.738606 0.130236 0.000000
vt -0.738606 0.130236 0.000000
vt 0.750000 -0.000000 0.000000
vt -0.750000 0.000000 0.000000
vt 0.738606 -0.130236 0.000000
vt -0.738606 -0.130236 0.000000
vt 0.704769 -0.256515 0.000000
vt -0.704769 -0.256515 0.000000
vt 0.649519 -0.375000 0.000000
vt -0.649519 -0.375000 0.000000
vt 0.574533 -0.482091 0.000000
vt -0.574533 -0.482091 0.000000
vt 0.482091 -0.574533 0.000000
vt -0.482091 -0.574533 0.000000
vt 0.375000 -0.649519 0.000000
vt -0.375000 -0.649519 0.000000
vt 0.256515 -0.704769 0.000000
vt -0.256515 -0.704769 0.000000
vt 0.130236 -0.738606 0.000000
vt -0.130236 -0.738606 0.000000
vt -0.000000 -0.750000 0.000000
vt -0.704769 0.256515 0.000000
vt 0.704769 0.256515 0.000000
vt -0.649519 0.375000 0.000000
vt 0.649519 0.375000 0.000000
vt -0.574533 0.482091 0.000000
vt 0.574533 0.482091 0.000000
vt -0.482091 0.574533 0.000000
vt 0.482091 0.574533 0.000000
vt -0.375000 0.649519 0.000000
vt 0.375000 0.649519 0.000000
vt -0.256515 0.704769 0.000000
vt 0.256515 0.704769 0.000000
vt -0.130236 0.738606 0.000000
vt 0.130236 0.738606 0.000000
vt -0.000000 0.750000 0.000000
vn 0.000000 -1.000000 0.000000
vn 0.000000 -1.000000 0.000000
vn 0.000000 -1.000000 0.000000
vn 0.000000 -1.000000 0.000000
vn -0.000000 -0.000000 -1.000000
vn -0.000000 -0.000000 -1.000000
vn -0.000000 -0.000000 -1.000000
vn -0.000000 -0.000000 -1.000000
vn -0.000000 -0.000000 -1.000000
vn -0.000000 -0.000000 -1.000000
vn -0.000000 -0.000000 -1.000000
vn -0.000000 -0.000000 -1.000000
vn -0.000000 -0.000000 -1.000000
vn -0.000000 -0.000000 -1.000000
vn -0.000000 -0.000000 -1.000000
vn -0.000000 -0.000000 -1.000000
vn -0.000000 -0.000000 -1.000000
vn -0.000000 -0.000000 -1.000000
vn -0.000000 -0.000000 -1.000000
vn -0.000000 -0.000000 -1.000000
vn -0.000000 -0.000000 -1.000000
vn -0.000000 -0.000000 -1.000000
vn -0.000000 -0.000000 -1.000000
vn -0.000000 -0.000000 -1.000000
vn -0.000000 -0.000000 -1.000000
vn -0.000000 -0.000000 -1.000000
vn -0.000000 -0.000000 -1.000000
vn -0.000000 -0.000000 -1.000000
vn -0.000000 -0.000000 -1.000000
vn -0.000000 -0.000000 -1.000000
vn -0.000000 -0.000000 -1.000000
vn -0.984808 -0.173648 0.000000
vn -0.984808 -0.173648 0.000000
vn -1.000000 -0.000000 0.000000
vn -1.000000 -0.000000 0.000000
vn -0.984808 0.173648 0.000000
vn -0.984808 0.173648 0.000000
vn -0.939693 0.342020 0.000000
vn -0.939693 0.342020 0.000000
vn -0.866025 0.500000 0.000000
vn -0.866025 0.500000 0.000000
vn -0.766044 0.642788 0.000000
vn -0.766044 0.642788 0.000000
vn -0.642788 0.766044 0.000000
vn -0.642788 0.766044 0.000000
vn -0.500000 0.866025 0.000000
vn -0.500000 0.866025 0.000000
vn -0.342020 0.939693 0.000000
vn -0.342020 0.939693 0.000000
vn -0.173648 0.984808 -0.000000
vn -0.173648 0.984808 -0.000000
vn -0.000000 1.000000 -0.000000
vn -0.000000 1.000000 -0.000000
vn 0.173648 0.984808 -0.000000
vn 0.173648 0.984808 -0.000000
vn 0.342020 0.939693 -0.000000
vn 0.342020 0.939693 -0.000000
vn 0.500000 0.866025 -0.000000
vn 0.500000 0.866025 -0.000000
vn 0.642788 0.766044 -0.000000
vn 0.642788 0.766044 -0.000000
vn 0.766044 0.642788 -0.000000
vn 0.766044 0.642788 -0.000000
vn 0.866025 0.500000 -0.000000
vn 0.866025 0.500000 -0.000000
vn 0.939693 0.342020 -0.000000
vn 0.939693 0.342020 -0.000000
vn 0.984808 0.173648 -0.000000
vn 0.984808 0.173648 -0.000000
vn 1.000000 0.000000 -0.000000
vn 1.000000 0.000000 -0.000000
vn 0.984808 -0.173648 -0.000000
vn 0.984808 -0.173648 -0.000000
vn 0.939693 -0.342020 -0.000000
vn 0.939693 -0.342020 -0.000000
vn 0.866025 -0.500000 -0.000000
vn 0.866025 -0.500000 -0.000000
vn 0.766044 -0.642788 -0.000000
vn 0.766044 -0.642788 -0.000000
vn 0.642788 -0.766044 -0.000000
vn 0.642788 -0.766044 -0.000000
vn 0.500000 -0.866025 -0.000000
vn 0.500000 -0.866025 -0.000000
vn 0.342020 -0.939693 -0.000000
vn 0.342020 -0.939693 -0.000000
vn 0.173648 -0.984808 0.000000
vn 0.173648 -0.984808 0.000000
vn 0.000000 -1.000000 0.000000
vn 0.000000 -1.000000 0.000000
vn -0.173648 -0.984808 0.000000
vn -0.173648 -0.984808 0.000000
vn -0.342020 -0.939693 0.000000
vn -0.342020 -0.939693 0.000000
vn -0.500000 -0.866025 0.000000
vn -0.500000 -0.866025 0.000000
vn -0.642788 -0.766044 0.000000
vn -0.642788 -0.766044 0.000000
vn -0.766044 -0.642788 0.000000
vn -0.766044 -0.642788 0.000000
vn -0.866025 -0.500000 0.000000
vn -0.866025 -0.500000 0.000000
vn -0.939693 -0.342020 0.000000
vn -0.939693 -0.342020 0.000000
vn -0.000000 -0.000000 -1.000000
vn -0.000000 -0.000000 -1.000000
vn -0.000000 -0.000000 -1.000000
vn -0.000000 -0.000000 -1.000000
vn -0.000000 -0.000000 -1.000000
vn -0.000000 -0.000000 -1.000000
vn -0.000000 -0.000000 -1.000000
vn -0.000000 -0.000000 -1.000000
vn -0.000000 -0.000000 -1.000000
vn -0.000000 -0.000000 -1.000000
vn -0.000000 -0.000000 -1.000000
vn -0.000000 -0.000000 -1.000000
vn -0.000000 -0.000000 -1.000000
vn -0.000000 -0.000000 -1.000000
vn -0.000000 -0.000000 -1.000000
vn -0.000000 -0.000000 -1.000000
vn -0.000000 -0.000000 -1.000000
vn -0.000000 -0.000000 -1.000000
vn -0.000000 -0.000000 -1.000000
vn -0.000000 -0.000000 -1.000000
vn -0.000000 -0.000000 -1.000000
vn -0.000000 -0.000000 -1.000000
vn -0.000000 -0.000000 -1.000000
vn -0.000000 -0.000000 -1.000000
vn -0.000000 -0.000000 -1.000000
vn -0.000000 -0.000000 -1.000000
vn -0.000000 -0.000000 -1.000000
vn -0.000000 -0.000000 -1.000000
vn -0.000000 -0.000000 -1.000000
vn -0.000000 -0.000000 -1.000000
vn -0.000000 -0.000000 -1.000000
vn -0.000000 -0.000000 -1.000000
vn -0.000000 -0.000000 -1.000000
vn -0.000000 -0.000000 -1.000000
vn -0.000000 -0.000000 -1.000000
vn -0.000000 -0.000000 -1.000000
vn -0.000000 -0.000000 -1.000000
vn -0.000000 -0.000000 -1.000000
vn -0.000000 -0.000000 -1.000000
vn -0.000000 -0.000000 -1.000000
vn -0.000000 -0.000000 -1.000000
vn -0.000000 -0.000000 -1.000000
vn -0.000000 -0.000000 -1.000000
vn -0.000000 -0.000000 -1.000000
vn -0.000000 -0.000000 -1.000000
vn -0.000000 -0.000000 -1.000000
vn -0.000000 -0.000000 -1.000000
vn -0.000000 -0.000000 -1.000000
vn -0.000000 -0.000000 -1.000000
vn -0.000000 -0.000000 -1.000000
vn -0.000000 -0.000000 -1.000000
vn -0.000000 -0.000000 -1.000000
vn -0.000000 -0.000000 -1.000000
vn -0.000000 -0.000000 -1.000000
vn -0.000000 -0.000000 -1.000000
vn -0.000000 -0.000000 -1.000000
vn -0.000000 -0.000000 -1.000000
vn -0.000000 -0.000000 -1.000000
vn -0.000000 -0.000000 -1.000000
vn -0.000000 -0.000000 -1.000000
vn 0.661438 -0.750000 -0.000000
vn 0.707107 -0.707107 -0.000000
vn 0.661438 -0.750000 -0.000000
vn 0.707107 -0.707107 -0.000000
vn 0.500000 -0.866025 -0.000000
vn 0.829019 -0.559221 -0.000000
vn 0.866025 -0.500000 -0.000000
vn 0.866025 -0.500000 -0.000000
vn 0.965926 -0.258819 -0.000000
vn 0.965926 -0.258819 -0.000000
vn 1.000000 0.000000 -0.000000
vn 1.000000 0.000000 -0.000000
vn 0.965926 0.258819 -0.000000
vn 0.965926 0.258819 -0.000000
vn 0.866025 0.500000 -0.000000
vn 0.866025 0.500000 -0.000000
vn 0.707107 0.707107 -0.000000
vn 0.707107 0.707107 -0.000000
vn 0.500000 0.866025 -0.000000
vn 0.500000 0.866025 -0.000000
vn 0.258819 0.965926 -0.000000
vn 0.258819 0.965926 -0.000000
vn -0.000000 1.000000 -0.000000
vn -0.000000 1.000000 -0.000000
vn -0.258819 0.965926 -0.000000
vn -0.258819 0.965926 -0.000000
vn -0.500000 0.866025 0.000000
vn -0.500000 0.866025 0.000000
vn -0.707107 0.707107 0.000000
vn -0.707107 0.707107 0.000000
vn -0.866025 0.500000 0.000000
vn -0.866025 0.500000 0.000000
vn -0.965926 0.258819 0.000000
vn -0.965926 0.258819 0.000000
vn -1.000000 -0.000000 0.000000
vn -1.000000 -0.000000 0.000000
vn -0.965926 -0.258819 0.000000
vn -0.965926 -0.258819 0.000000
vn -0.866025 -0.500000 0.000000
vn -0.866025 -0.500000 0.000000
vn -0.707107 -0.707107 0.000000
vn -0.707107 -0.707107 0.000000
vn -0.661438 -0.750000 0.000000
vn -0.661438 -0.750000 0.000000
vn -0.829019 -0.559221 0.000000
vn -0.943145 -0.332383 0.000000
vn -0.996456 -0.084113 0.000000
vn -0.985516 0.169581 0.000000
vn -0.911030 0.412340 0.000000
vn -0.777800 0.628511 0.000000
vn -0.594418 0.804156 0.000000
vn -0.372707 0.927949 0.000000
vn -0.126965 0.991907 -0.000000
vn 0.126965 0.991907 -0.000000
vn 0.372707 0.927949 -0.000000
vn 0.594418 0.804156 -0.000000
vn 0.777800 0.628511 -0.000000
vn 0.911030 0.412340 -0.000000
vn 0.985516 0.169581 -0.000000
vn 0.996456 -0.084113 -0.000000
vn 0.943145 -0.332383 -0.000000
vn -0.500000 -0.866025 0.000000
vn -0.463395 -0.886152 0.000000
vn -0.258819 -0.965926 0.000000
vn -0.238588 -0.971121 0.000000
vn 0.000000 -1.000000 0.000000
vn 0.000000 -1.000000 0.000000
vn 0.238588 -0.971121 0.000000
vn 0.258819 -0.965926 0.000000
vn 0.463395 -0.886152 -0.000000
vn 0.000000 0.000000 1.000000
vn 0.000000 0.000000 1.000000
vn 0.000000 0.000000 1.000000
vn 0.000000 0.000000 1.000000
vn 0.000000 0.000000 1.000000
vn 0.000000 0.000000 1.000000
vn 0.000000 0.000000 1.000000
vn 0.000000 0.000000 1.000000
vn 0.000000 0.000000 1.000000
vn 0.000000 0.000000 1.000000
vn 0.000000 0.000000 1.000000
vn 0.000000 0.000000 1.000000
vn 0.000000 0.000000 1.000000
vn 0.000000 0.000000 1.000000
vn 0.000000 0.000000 1.000000
vn 0.000000 0.000000 1.000000
vn 0.000000 0.000000 1.000000
vn 0.000000 0.000000 1.000000
vn 0.000000 0.000000 1.000000
vn 0.000000 0.000000 1.000000
vn 0.000000 0.000000 1.000000
vn 0.000000 0.000000 1.000000
vn 0.000000 0.000000 1.000000
vn 0.000000 0.000000 1.000000
vn 0.000000 0.000000 1.000000
vn 0.000000 0.000000 1.000000
vn 0.000000 0.000000 1.000000
vn 0.000000 0.000000 1.000000
vn 0.000000 0.000000 1.000000
vn 0.000000 0.000000 1.000000
vn 0.000000 0.000000 1.000000
vn 0.000000 0.000000 1.000000
vn 0.000000 0.000000 1.000000
vn 0.000000 0.000000 1.000000
vn 0.000000 0.000000 1.000000
vn 0.000000 0.000000 1.000000
usemtl Acero_inoxidable_-_Pulido
f 1/1/1 2/2/2 4/3/3
f 4/3/3 2/2/2 3/4/4
f 4/5/5 3/6/6 9/7/7
f 9/7/7 3/6/6 5/8/8
f 9/7/7 5/8/8 8/9/9
f 8/9/9 5/8/8 6/10/10
f 8/9/9 6/10/10 7/11/11
f 2/12/12 1/13/13 27/14/14
f 27/14/14 1/13/13 10/15/15
f 27/14/14 10/15/15 26/16/16
f 26/16/16 10/15/15 11/17/17
f 26/16/16 11/17/17 25/18/18
f 25/18/18 11/17/17 12/19/19
f 25/18/18 12/19/19 24/20/20
f 24/20/20 12/19/19 13/21/21
f 24/20/20 13/21/21 23/22/22
f 23/22/22 13/21/21 14/23/23
f 23/22/22 14/23/23 22/24/24
f 22/24/24 14/23/23 15/25/25
f 22/24/24 15/25/25 21/26/26
f 21/26/26 15/25/25 16/27/27
f 21/26/26 16/27/27 20/28/28
f 20/28/28 16/27/27 17/29/29
f 20/28/28 17/29/29 19/30/30
f 19/30/30 17/29/29 18/31/31
f 29/32/32 99/33/33 28/34/34
f 28/34/34 99/33/33 64/35/35
f 28/36/34 64/37/35 63/38/36
f 63/38/36 64/37/35 65/39/37
f 63/38/36 65/39/37 62/40/38
f 62/40/38 65/39/37 66/41/39
f 62/40/38 66/41/39 61/42/40
f 61/42/40 66/41/39 67/43/41
f 61/42/40 67/43/41 60/44/42
f 60/44/42 67/43/41 68/45/43
f 60/44/42 68/45/43 59/46/44
f 59/46/44 68/45/43 69/47/45
f 59/46/44 69/47/45 58/48/46
f 58/48/46 69/47/45 70/49/47
f 58/48/46 70/49/47 57/50/48
f 57/50/48 70/49/47 71/51/49
f 57/50/48 71/51/49 56/52/50
f 56/52/50 71/51/49 72/53/51
f 56/52/50 72/53/51 55/54/52
f 55/54/52 72/53/51 73/55/53
f 55/54/52 73/55/53 54/56/54
f 54/56/54 73/55/53 74/57/55
f 54/56/54 74/57/55 53/58/56
f 53/58/56 74/57/55 75/59/57
f 53/58/56 75/59/57 52/60/58
f 52/60/58 75/59/57 76/61/59
f 52/60/58 76/61/59 51/62/60
f 51/62/60 76/61/59 77/63/61
f 51/62/60 77/63/61 50/64/62
f 50/64/62 77/63/61 78/65/63
f 50/64/62 78/65/63 49/66/64
f 49/66/64 78/65/63 79/67/65
f 49/66/64 79/67/65 48/68/66
f 48/68/66 79/67/65 80/69/67
f 48/68/66 80/69/67 47/70/68
f 47/70/68 80/69/67 81/71/69
f 47/70/68 81/71/69 46/72/70
f 46/72/70 81/71/69 82/73/71
f 46/72/70 82/73/71 45/74/72
f 45/74/72 82/73/71 83/75/73
f 45/74/72 83/75/73 44/76/74
f 44/76/74 83/75/73 84/77/75
f 44/76/74 84/77/75 43/78/76
f 43/78/76 84/77/75 85/79/77
f 43/78/76 85/79/77 42/80/78
f 42/80/78 85/79/77 86/81/79
f 42/80/78 86/81/79 41/82/80
f 41/82/80 86/81/79 87/83/81
f 41/82/80 87/83/81 40/84/82
f 40/84/82 87/83/81 88/85/83
f 40/84/82 88/85/83 39/86/84
f 39/86/84 88/85/83 89/87/85
f 39/86/84 89/87/85 38/88/86
f 38/88/86 89/87/85 90/89/87
f 38/88/86 90/89/87 37/90/88
f 37/90/88 90/89/87 91/91/89
f 37/90/88 91/91/89 36/92/90
f 36/92/90 91/91/89 92/93/91
f 36/92/90 92/93/91 35/94/92
f 35/94/92 92/93/91 93/95/93
f 35/94/92 93/95/93 34/96/94
f 34/96/94 93/95/93 94/97/95
f 34/96/94 94/97/95 33/98/96
f 33/98/96 94/97/95 95/99/97
f 33/98/96 95/99/97 32/100/98
f 32/100/98 95/99/97 96/101/99
f 32/100/98 96/101/99 31/102/100
f 31/102/100 96/101/99 97/103/101
f 31/102/100 97/103/101 30/104/102
f 30/104/102 97/103/101 98/105/103
f 30/104/102 98/105/103 29/32/32
f 29/32/32 98/105/103 99/33/33
f 101/106/104 29/107/105 100/108/106
f 100/108/106 29/107/105 28/109/107
f 100/108/106 28/109/107 63/110/108
f 29/107/105 101/106/104 30/111/109
f 30/111/109 101/106/104 102/112/110
f 30/111/109 102/112/110 31/113/111
f 31/113/111 102/112/110 32/114/112
f 32/114/112 102/112/110 103/115/113
f 32/114/112 103/115/113 33/116/114
f 33/116/114 103/115/113 104/117/115
f 33/116/114 104/117/115 34/118/116
f 34/118/116 104/117/115 35/119/117
f 35/119/117 104/117/115 105/120/118
f 35/119/117 105/120/118 36/121/119
f 36/121/119 105/120/118 106/122/120
f 36/121/119 106/122/120 37/123/121
f 37/123/121 106/122/120 38/124/122
f 38/124/122 106/122/120 107/125/123
f 38/124/122 107/125/123 39/126/124
f 39/126/124 107/125/123 108/127/125
f 39/126/124 108/127/125 40/128/126
f 40/128/126 108/127/125 41/129/127
f 41/129/127 108/127/125 109/130/128
f 41/129/127 109/130/128 42/131/129
f 42/131/129 109/130/128 110/132/130
f 42/131/129 110/132/130 43/133/131
f 43/133/131 110/132/130 44/134/132
f 44/134/132 110/132/130 111/135/133
f 44/134/132 111/135/133 45/136/134
f 45/136/134 111/135/133 112/137/135
f 45/136/134 112/137/135 46/138/136
f 46/138/136 112/137/135 47/139/137
f 47/139/137 112/137/135 113/140/138
f 47/139/137 113/140/138 48/141/139
f 48/141/139 113/140/138 114/142/140
f 48/141/139 114/142/140 49/143/141
f 49/143/141 114/142/140 50/144/142
f 50/144/142 114/142/140 115/145/143
f 50/144/142 115/145/143 51/146/144
f 51/146/144 115/145/143 116/147/145
f 51/146/144 116/147/145 52/148/146
f 52/148/146 116/147/145 53/149/147
f 53/149/147 116/147/145 117/150/148
f 53/149/147 117/150/148 54/151/149
f 54/151/149 117/150/148 118/152/150
f 54/151/149 118/152/150 55/153/151
f 55/153/151 118/152/150 56/154/152
f 56/154/152 118/152/150 119/155/153
f 56/154/152 119/155/153 57/156/154
f 57/156/154 119/155/153 120/157/155
f 57/156/154 120/157/155 58/158/156
f 58/158/156 120/157/155 59/159/157
f 59/159/157 120/157/155 121/160/158
f 59/159/157 121/160/158 60/161/159
f 60/161/159 121/160/158 122/162/160
f 60/161/159 122/162/160 61/163/161
f 61/163/161 122/162/160 62/164/162
f 62/164/162 122/162/160 123/165/163
f 62/164/162 123/165/163 63/110/108
f 63/110/108 123/165/163 100/108/106
f 2/166/164 125/167/165 3/168/166
f 3/168/166 125/167/165 109/169/167
f 3/168/166 109/169/167 108/170/168
f 2/166/164 27/171/169 125/167/165
f 125/167/165 27/171/169 126/172/170
f 125/167/165 126/172/170 110/173/171
f 110/173/171 126/172/170 111/174/172
f 111/174/172 126/172/170 127/175/173
f 111/174/172 127/175/173 112/176/174
f 112/176/174 127/175/173 128/177/175
f 112/176/174 128/177/175 113/178/176
f 113/178/176 128/177/175 129/179/177
f 113/178/176 129/179/177 114/180/178
f 114/180/178 129/179/177 130/181/179
f 114/180/178 130/181/179 115/182/180
f 115/182/180 130/181/179 131/183/181
f 115/182/180 131/183/181 116/184/182
f 116/184/182 131/183/181 132/185/183
f 116/184/182 132/185/183 117/186/184
f 117/186/184 132/185/183 133/187/185
f 117/186/184 133/187/185 118/188/186
f 118/188/186 133/187/185 134/189/187
f 118/188/186 134/189/187 119/190/188
f 119/190/188 134/189/187 135/191/189
f 119/190/188 135/191/189 120/192/190
f 120/192/190 135/191/189 136/193/191
f 120/192/190 136/193/191 121/194/192
f 121/194/192 136/193/191 137/195/193
f 121/194/192 137/195/193 122/196/194
f 122/196/194 137/195/193 138/197/195
f 122/196/194 138/197/195 123/198/196
f 123/198/196 138/197/195 139/199/197
f 123/198/196 139/199/197 100/200/198
f 100/200/198 139/199/197 124/201/199
f 100/202/198 124/203/199 101/204/200
f 101/204/200 124/203/199 140/205/201
f 101/204/200 140/205/201 102/206/202
f 102/206/202 140/205/201 141/207/203
f 102/206/202 141/207/203 103/208/204
f 103/208/204 141/207/203 142/209/205
f 103/208/204 142/209/205 4/210/206
f 4/210/206 142/209/205 1/211/207
f 1/211/207 142/209/205 10/212/208
f 10/212/208 142/209/205 141/207/203
f 10/212/208 141/207/203 11/213/209
f 11/213/209 141/207/203 140/205/201
f 11/213/209 140/205/201 12/214/210
f 12/214/210 140/205/201 124/203/199
f 12/214/210 124/203/199 13/215/211
f 13/216/211 124/201/199 139/199/197
f 13/216/211 139/199/197 14/217/212
f 14/217/212 139/199/197 138/197/195
f 14/217/212 138/197/195 15/218/213
f 15/218/213 138/197/195 137/195/193
f 15/218/213 137/195/193 16/219/214
f 16/219/214 137/195/193 136/193/191
f 16/219/214 136/193/191 17/220/215
f 17/220/215 136/193/191 135/191/189
f 17/220/215 135/191/189 18/221/216
f 18/221/216 135/191/189 134/189/187
f 18/221/216 134/189/187 19/222/217
f 19/222/217 134/189/187 133/187/185
f 19/222/217 133/187/185 20/223/218
f 20/223/218 133/187/185 132/185/183
f 20/223/218 132/185/183 21/224/219
f 21/224/219 132/185/183 131/183/181
f 21/224/219 131/183/181 22/225/220
f 22/225/220 131/183/181 130/181/179
f 22/225/220 130/181/179 23/226/221
f 23/226/221 130/181/179 129/179/177
f 23/226/221 129/179/177 24/227/222
f 24/227/222 129/179/177 128/177/175
f 24/227/222 128/177/175 25/228/223
f 25/228/223 128/177/175 127/175/173
f 25/228/223 127/175/173 26/229/224
f 26/229/224 127/175/173 126/172/170
f 26/229/224 126/172/170 27/171/169
f 103/208/204 4/210/206 104/230/225
f 104/230/225 4/210/206 9/231/226
f 104/230/225 9/231/226 105/232/227
f 105/232/227 9/231/226 8/233/228
f 105/232/227 8/233/228 106/234/229
f 106/234/229 8/233/228 7/235/230
f 106/234/229 7/235/230 6/236/231
f 106/234/229 6/236/231 107/237/232
f 107/237/232 6/236/231 5/238/233
f 107/237/232 5/238/233 108/170/168
f 108/170/168 5/238/233 3/168/166
f 110/173/171 109/169/167 125/167/165
f 99/239/234 83/240/235 64/241/236
f 64/241/236 83/240/235 82/242/237
f 64/241/236 82/242/237 65/243/238
f 65/243/238 82/242/237 81/244/239
f 65/243/238 81/244/239 66/245/240
f 66/245/240 81/244/239 80/246/241
f 66/245/240 80/246/241 67/247/242
f 67/247/242 80/246/241 79/248/243
f 67/247/242 79/248/243 68/249/244
f 68/249/244 79/248/243 78/250/245
f 68/249/244 78/250/245 69/251/246
f 69/251/246 78/250/245 77/252/247
f 69/251/246 77/252/247 70/253/248
f 70/253/248 77/252/247 76/254/249
f 70/253/248 76/254/249 71/255/250
f 71/255/250 76/254/249 75/256/251
f 71/255/250 75/256/251 72/257/252
f 72/257/252 75/256/251 74/258/253
f 72/257/252 74/258/253 73/259/254
f 83/240/235 99/239/234 84/260/255
f 84/260/255 99/239/234 98/261/256
f 84/260/255 98/261/256 85/262/257
f 85/262/257 98/261/256 97/263/258
f 85/262/257 97/263/258 86/264/259
f 86/264/259 97/263/258 96/265/260
f 86/264/259 96/265/260 87/266/261
f 87/266/261 96/265/260 95/267/262
f 87/266/261 95/267/262 88/268/263
f 88/268/263 95/267/262 94/269/264
f 88/268/263 94/269/264 89/270/265
f 89/270/265 94/269/264 93/271/266
f 89/270/265 93/271/266 90/272/267
f 90/272/267 93/271/266 92/273/268
f 90/272/267 92/273/268 91/274/269
# 142 vertices
# 274 texture params
# 269 normals
# 280 facets

# 1 groups
